<svg width="18" height="30" viewBox="0 0 18 30" fill="none" xmlns="http://www.w3.org/2000/svg">
<path fill-rule="evenodd" clip-rule="evenodd" d="M0 6.13422V16.6163V27.0349C0 27.2661 0 27.5019 0.0498657 27.7241C0.35376 29.1114 1.45123 29.9909 2.87531 29.9909C4.06421 29.9909 5.25348 29.989 6.44293 29.987H6.44348C9.30109 29.9823 12.1596 29.9776 15.0159 30C16.7302 30.0136 18.0091 28.6716 17.9955 27.0349C17.9663 23.3561 17.9719 19.6772 17.9774 15.9984C17.9797 14.5269 17.9819 13.0554 17.9819 11.5838C17.9819 10.9803 17.9824 10.3764 17.9828 9.77209V9.771V9.7699C17.9839 8.5589 17.9849 7.34656 17.9819 6.13422C17.9774 4.7287 17.1293 3.60889 15.7959 3.34595C15.3796 3.26202 14.9495 3.26306 14.5187 3.26416C14.3441 3.26459 14.1694 3.26501 13.9955 3.25977C13.5057 3.24615 13.2789 3.03308 13.2789 2.53894C13.2789 2.03564 13.288 1.53693 13.2789 1.03369C13.2698 0.40802 12.8571 0 12.2313 0H5.75513C5.13831 0 4.71655 0.417114 4.70294 1.02917C4.70074 1.25256 4.70068 1.47589 4.70117 1.69928L4.70197 1.9538C4.70233 2.06293 4.7027 2.17206 4.70282 2.28119L4.70294 2.4165C4.69843 3.10107 4.52606 3.25073 3.83673 3.26434C3.69629 3.2677 3.55524 3.26801 3.41418 3.26825C2.9906 3.2691 2.56702 3.26996 2.15875 3.35498C0.848083 3.62701 0 4.75592 0 6.13422ZM1.18365 16.5936H1.18823L1.18365 16.5981V26.9805C1.18365 28.1547 1.82764 28.7985 3.01135 28.7985H14.9977C16.1633 28.7985 16.7982 28.1683 16.8027 26.9941V21.4856V6.25208C16.8027 5.10956 16.1451 4.46124 15.0023 4.46124H2.98413C1.8186 4.46124 1.18365 5.09595 1.18365 6.2702V16.5936ZM14.5941 14.9569H8.99323V14.966H3.42401C2.74829 14.9705 2.41272 15.306 2.39911 15.9861C2.39325 16.1608 2.3916 16.3364 2.39197 16.5125C2.39215 16.6267 2.39325 16.7411 2.39459 16.8557C2.39606 16.9767 2.39777 17.098 2.39911 17.2192C2.40814 17.8857 2.73468 18.2213 3.39685 18.2303C4.05896 18.2348 4.72107 18.2303 5.38324 18.2303H14.5986C15.229 18.2258 15.5828 17.8721 15.5919 17.2374C15.5979 16.9563 15.5959 16.6752 15.5939 16.3942C15.5928 16.2536 15.5919 16.113 15.5919 15.9725C15.5964 15.3287 15.2381 14.9569 14.5941 14.9569ZM8.99323 19.4499H9.00226H14.5941C15.2381 19.4499 15.5692 19.7627 15.5919 20.3929C15.6055 20.8644 15.6055 21.3359 15.5919 21.8074C15.5737 22.3515 15.2064 22.7006 14.6621 22.7006H3.34241C2.80725 22.7006 2.43536 22.3651 2.41272 21.8392C2.39001 21.3268 2.39001 20.8146 2.41272 20.3068C2.43536 19.7673 2.80273 19.4499 3.36963 19.4499H8.99323ZM3.40588 27.18H8.97504L8.97052 27.189H14.6031C15.229 27.189 15.5782 26.8536 15.5919 26.2324C15.5968 25.9844 15.5991 25.7377 15.5986 25.4908C15.5982 25.2866 15.5959 25.0822 15.5919 24.8768C15.5828 24.2874 15.2109 23.9293 14.6168 23.9293H3.38324C2.77551 23.9293 2.42175 24.2603 2.39911 24.8632C2.3877 25.2313 2.39221 25.6025 2.39667 25.9716C2.39752 26.0435 2.39838 26.1154 2.39911 26.1871C2.40814 26.849 2.73926 27.18 3.40588 27.18Z" fill="#F7B917"/>
</svg>
