<svg width="16" height="15" viewBox="0 0 16 15" fill="none" xmlns="http://www.w3.org/2000/svg">
<path d="M12.9331 7.50202H7.24975C7.072 7.50202 6.90876 7.38524 6.75822 7.15167C6.60768 6.9181 6.53332 6.63782 6.53332 6.31083C6.53332 5.98383 6.60859 5.70265 6.75822 5.46998C6.90786 5.23641 7.072 5.11963 7.24975 5.11963H12.9331C13.1109 5.11963 13.2741 5.23641 13.4247 5.46998C13.5743 5.70355 13.6496 5.98383 13.6496 6.31083C13.6496 6.63782 13.7647 6.90642 13.9942 7.1337C14.2236 7.36098 14.5002 7.47507 14.8249 7.47507C15.1495 7.47507 15.4261 7.36098 15.6556 7.1337C15.885 6.90642 16.0002 6.63243 16.0002 6.31083C16.0002 5.34062 15.7 4.51145 15.1006 3.82333C14.5002 3.1352 13.7783 2.79114 12.934 2.79114H7.25066C6.90423 2.79114 6.58048 2.85222 6.27486 2.96811L6.24584 2.79203C5.91846 1.22174 4.86104 0 3.14251 0L1.13378 0.00898338C-0.302707 0 -0.450528 2.18925 1.13378 2.21351L3.01374 2.22339C4.41576 2.25573 4.68148 4.34077 4.3541 5.11963H4.36861C4.25253 5.49154 4.18451 5.88501 4.18451 6.31083C4.18451 7.28103 4.48469 8.1084 5.08413 8.79383C5.68358 9.47926 6.40636 9.82153 7.25066 9.82153L12.934 9.83051C13.1118 9.83051 13.275 9.9455 13.4256 10.1764C13.5752 10.4072 13.6505 10.6857 13.6505 11.0127C13.6505 11.3397 13.5752 11.6209 13.4256 11.8536C13.2759 12.0871 13.1118 12.2039 12.934 12.2039H7.25066C7.07291 12.2039 6.90967 12.0871 6.75913 11.8536C6.60859 11.62 6.53423 11.3397 6.53423 11.0127C6.53423 10.6857 6.41905 10.4189 6.18961 10.1943C5.96017 9.96976 5.68267 9.85836 5.35891 9.85836C5.03516 9.85836 4.75766 9.97066 4.52822 10.1943C4.29878 10.4189 4.1836 10.692 4.1836 11.0127C4.1836 11.9829 4.48378 12.8121 5.08322 13.5002C5.68267 14.1884 6.40545 14.5324 7.24975 14.5324H12.9331C13.7774 14.5324 14.5002 14.1884 15.0997 13.5002C15.6991 12.8121 15.9993 11.9829 15.9993 11.0127C15.9993 10.0425 15.6991 9.21515 15.0997 8.52972C14.4993 7.84429 13.7774 7.50202 12.9331 7.50202Z" fill="#F7B917"/>
</svg>
