<svg width="31" height="31" viewBox="0 0 31 31" fill="none" xmlns="http://www.w3.org/2000/svg">
<path fill-rule="evenodd" clip-rule="evenodd" d="M23.8855 5.16667H24.5417C26.2539 5.16872 27.8954 5.84981 29.1061 7.06053C30.3169 8.27126 30.9979 9.91277 31 11.625V24.5417C30.9979 26.2539 30.3169 27.8954 29.1061 29.1061C27.8954 30.3169 26.2539 30.9979 24.5417 31H6.45833C4.74611 30.9979 3.1046 30.3169 1.89387 29.1061C0.683139 27.8954 0.00205098 26.2539 0 24.5417V11.625C0.00205098 9.91277 0.683139 8.27126 1.89387 7.06053C3.1046 5.84981 4.74611 5.16872 6.45833 5.16667H7.1145L9.9355 1.50867C10.2991 1.04083 10.7643 0.661871 11.2961 0.400486C11.8278 0.139101 12.412 0.0021481 13.0045 0H17.9955C18.588 0.0021481 19.1722 0.139101 19.7039 0.400486C20.2357 0.661871 20.7009 1.04083 21.0645 1.50867L23.8855 5.16667ZM12.4348 2.717C12.2575 2.80429 12.1025 2.93086 11.9815 3.08708L10.3772 5.16667H20.6227L19.0185 3.08708C18.8974 2.931 18.7423 2.80454 18.5651 2.71726C18.3878 2.62998 18.1931 2.58418 17.9955 2.58333H13.0045C12.8069 2.58399 12.6121 2.62971 12.4348 2.717ZM27.2817 27.2817C28.0084 26.555 28.4167 25.5694 28.4167 24.5417V11.625C28.4167 10.5973 28.0084 9.61166 27.2817 8.88496C26.555 8.15826 25.5694 7.75 24.5417 7.75H6.45833C5.43062 7.75 4.445 8.15826 3.71829 8.88496C2.99159 9.61166 2.58333 10.5973 2.58333 11.625V24.5417C2.58333 25.5694 2.99159 26.555 3.71829 27.2817C4.445 28.0084 5.43062 28.4167 6.45833 28.4167H24.5417C25.5694 28.4167 26.555 28.0084 27.2817 27.2817ZM11.1943 11.6394C12.4688 10.7879 13.9672 10.3333 15.5 10.3333C17.5548 10.3354 19.5248 11.1526 20.9778 12.6055C22.4308 14.0585 23.2479 16.0285 23.25 18.0833C23.25 19.6161 22.7955 21.1145 21.9439 22.389C21.0923 23.6635 19.8819 24.6568 18.4658 25.2434C17.0497 25.83 15.4914 25.9835 13.988 25.6844C12.4847 25.3854 11.1038 24.6473 10.0199 23.5634C8.93606 22.4796 8.19795 21.0986 7.89891 19.5953C7.59988 18.0919 7.75335 16.5337 8.33993 15.1175C8.92651 13.7014 9.91985 12.491 11.1943 11.6394ZM12.6296 22.3793C13.4792 22.947 14.4781 23.25 15.5 23.25C16.8703 23.25 18.1844 22.7057 19.1534 21.7367C20.1223 20.7678 20.6667 19.4536 20.6667 18.0833C20.6667 17.0615 20.3636 16.0625 19.7959 15.2129C19.2282 14.3632 18.4213 13.701 17.4772 13.31C16.5331 12.9189 15.4943 12.8166 14.492 13.0159C13.4898 13.2153 12.5692 13.7074 11.8466 14.4299C11.124 15.1525 10.632 16.0731 10.4326 17.0754C10.2333 18.0776 10.3356 19.1164 10.7266 20.0605C11.1177 21.0046 11.7799 21.8115 12.6296 22.3793Z" fill="#F7B917"/>
</svg>
