<svg width="34" height="34" viewBox="0 0 34 34" fill="none" xmlns="http://www.w3.org/2000/svg">
<path d="M34 4.24999V8.49999C34 9.62716 33.5521 10.7082 32.7549 11.5052C31.9577 12.3022 30.8764 12.75 29.7489 12.75H25.4979V9.91666H29.2331C28.0796 7.92466 26.4576 6.24396 24.5076 5.02024C22.5577 3.79653 20.3386 3.06671 18.0428 2.89406C15.747 2.72141 13.4437 3.11112 11.3325 4.02943C9.22139 4.94774 7.36612 6.36694 5.92752 8.164C4.48891 9.96106 3.5104 12.0818 3.07677 14.3423C2.64315 16.6029 2.7675 18.935 3.43906 21.1367C4.11062 23.3383 5.30911 25.343 6.93066 26.9769C8.55222 28.6109 10.5479 29.8249 12.7447 30.5136V33.4404C10.075 32.7511 7.61307 31.4226 5.57149 29.5697C3.52991 27.7168 1.96997 25.3951 1.02628 22.8049C0.0825826 20.2147 -0.216516 17.4338 0.154789 14.7022C0.526094 11.9706 1.55665 9.37042 3.15753 7.12593C4.75841 4.88144 6.88152 3.0601 9.34366 1.81907C11.8058 0.578046 14.533 -0.0453869 17.29 0.00257179C20.0469 0.0505305 22.7508 0.76844 25.1682 2.09435C27.5857 3.42026 29.6442 5.31434 31.166 7.61315V4.24999H34ZM24.0809 25.5C24.0809 24.3728 23.633 23.2918 22.8358 22.4948C22.0385 21.6978 20.9573 21.25 19.8298 21.25C18.7024 21.25 17.6211 21.6978 16.8239 22.4948C16.0266 23.2918 15.5788 24.3728 15.5788 25.5H18.4128C18.4128 25.1243 18.5621 24.7639 18.8278 24.4983C19.0936 24.2326 19.454 24.0833 19.8298 24.0833C20.2056 24.0833 20.5661 24.2326 20.8318 24.4983C21.0975 24.7639 21.2468 25.1243 21.2468 25.5C21.2468 26.2083 20.0424 27.1122 18.9796 27.9083C17.3855 29.104 15.5788 30.4583 15.5788 32.5833V34H24.0809V31.1667H19.4189C19.8029 30.8323 20.2535 30.4952 20.68 30.175C22.2742 28.9793 24.0809 27.625 24.0809 25.5ZM31.166 26.9167H28.3319V21.25H25.4979V26.9167C25.4979 27.6681 25.7965 28.3888 26.328 28.9201C26.8594 29.4515 27.5803 29.75 28.3319 29.75H31.166V34H34V21.25H31.166V26.9167ZM18.4128 8.49999H15.5788V15.5833H9.91068V18.4167H18.4128V8.49999Z" fill="#FBC947"/>
</svg>
