<svg width="37" height="34" viewBox="0 0 37 34" fill="none" xmlns="http://www.w3.org/2000/svg">
<path d="M29.2917 6.17489H26.0542C25.6964 4.43266 24.7496 2.86723 23.3736 1.74243C21.9975 0.617628 20.2763 0.00224538 18.5 0H7.70833C5.66471 0.00245121 3.70548 0.816447 2.26042 2.26344C0.81536 3.71043 0.00244795 5.67226 0 7.71861L0 21.6121C0.00387545 22.9947 0.471037 24.336 1.32666 25.4212C2.18228 26.5063 3.37686 27.2726 4.71904 27.5971C4.57376 28.3697 4.59859 29.1647 4.79179 29.9266C4.985 30.6886 5.34193 31.3991 5.83767 32.0087C6.33341 32.6183 6.95603 33.1122 7.66206 33.456C8.3681 33.7998 9.14055 33.9851 9.92551 33.9991C10.7105 34.0131 11.489 33.8555 12.2069 33.5371C12.9247 33.2187 13.5645 32.7474 14.0816 32.1559C14.5987 31.5644 14.9807 30.867 15.2009 30.1124C15.4211 29.3579 15.4742 28.5643 15.3565 27.787H21.6496C21.61 28.0424 21.5888 28.3004 21.5864 28.5589C21.5864 29.9918 22.1549 31.3661 23.1668 32.3794C24.1787 33.3927 25.5512 33.9619 26.9823 33.9619C28.4133 33.9619 29.7858 33.3927 30.7977 32.3794C31.8096 31.3661 32.3781 29.9918 32.3781 28.5589C32.3763 28.2361 32.3449 27.9141 32.284 27.5971C33.6257 27.272 34.8195 26.5055 35.6746 25.4204C36.5296 24.3353 36.9963 22.9943 37 21.6121V13.8935C36.9976 11.8472 36.1846 9.88532 34.7396 8.43833C33.2945 6.99134 31.3353 6.17734 29.2917 6.17489ZM33.9167 13.8935V15.4372H26.2083V9.26233H29.2917C30.5183 9.26233 31.6947 9.75026 32.562 10.6188C33.4294 11.4873 33.9167 12.6652 33.9167 13.8935ZM3.08333 21.6121V7.71861C3.08333 6.49035 3.57061 5.3124 4.43796 4.44388C5.30532 3.57537 6.48171 3.08745 7.70833 3.08745H18.5C19.7266 3.08745 20.903 3.57537 21.7704 4.44388C22.6377 5.3124 23.125 6.49035 23.125 7.71861V24.6996H6.16667C5.34892 24.6996 4.56466 24.3743 3.98642 23.7953C3.40818 23.2163 3.08333 22.431 3.08333 21.6121ZM12.3333 28.5589C12.3333 29.173 12.0897 29.762 11.656 30.1962C11.2223 30.6305 10.6341 30.8745 10.0208 30.8745C9.40752 30.8745 8.81933 30.6305 8.38565 30.1962C7.95197 29.762 7.70833 29.173 7.70833 28.5589C7.70928 28.295 7.75785 28.0335 7.85171 27.787H12.19C12.2838 28.0335 12.3324 28.295 12.3333 28.5589ZM26.9792 30.8745C26.3659 30.8745 25.7777 30.6305 25.344 30.1962C24.9103 29.762 24.6667 29.173 24.6667 28.5589C24.6673 28.295 24.7159 28.0335 24.81 27.787H29.1483C29.2424 28.0335 29.291 28.295 29.2917 28.5589C29.2917 29.173 29.048 29.762 28.6143 30.1962C28.1807 30.6305 27.5925 30.8745 26.9792 30.8745ZM30.8333 24.6996H26.2083V18.5247H33.9167V21.6121C33.9167 22.431 33.5918 23.2163 33.0136 23.7953C32.4353 24.3743 31.6511 24.6996 30.8333 24.6996Z" fill="#FBC947"/>
</svg>
