<svg width="31" height="30" viewBox="0 0 31 30" fill="none" xmlns="http://www.w3.org/2000/svg">
<path fill-rule="evenodd" clip-rule="evenodd" d="M17.4476 4.34791H15.7456V1.06655C15.7456 0.453853 15.378 0.0499238 14.8107 0.0499238C14.257 0.0544624 13.8939 0.453853 13.8939 1.05294V4.12098C13.8939 4.17994 13.8849 4.23889 13.8767 4.29298C13.8748 4.30552 13.8729 4.3178 13.8712 4.32976H12.142C12.142 3.95085 12.141 3.57551 12.14 3.20238C12.138 2.46264 12.136 1.73156 12.142 0.998477C12.142 0.417545 11.7653 0 11.2162 0C10.6852 0 10.2903 0.417545 10.2722 0.984861V3.99391V4.32522C10.1346 4.34242 9.99967 4.35769 9.86692 4.37272C9.54426 4.40924 9.23422 4.44434 8.92875 4.50222C7.68973 4.74276 6.56871 5.23746 5.66554 6.14517C4.63076 7.18903 4.19052 8.48705 4.13606 9.9303C4.12698 10.1845 4.07252 10.2843 3.79113 10.2798C3.18763 10.2671 2.5819 10.2699 1.97551 10.2728C1.71545 10.274 1.45527 10.2752 1.19509 10.2752C1.04986 10.2752 0.89555 10.2798 0.759394 10.3206C0.305541 10.4568 0.0513834 10.8879 0.119461 11.3826C0.178462 11.8229 0.582391 12.1633 1.08617 12.1678C1.68845 12.1708 2.29275 12.1698 2.89637 12.1688C3.19793 12.1683 3.49932 12.1678 3.80021 12.1678C3.87048 12.1678 3.9387 12.1719 4.00624 12.176C4.03903 12.178 4.07166 12.1799 4.10429 12.1814V13.8652C4.06999 13.867 4.03856 13.8695 4.00886 13.8719C3.9639 13.8755 3.9229 13.8788 3.8819 13.8788H1.01809C0.891011 13.8788 0.759394 13.8834 0.641392 13.9197C0.210232 14.0558 -0.0575413 14.4961 0.0105366 14.9318C0.0786146 15.3811 0.446235 15.7169 0.904627 15.7215C1.40067 15.7275 1.89873 15.7255 2.39747 15.7235C2.64709 15.7225 2.89687 15.7215 3.14666 15.7215H4.09975V17.487H1.24048C0.645931 17.487 0.237463 17.8591 0.232925 18.4037C0.223848 18.962 0.614161 19.3296 1.21779 19.3296H3.78659C3.84496 19.3296 3.90334 19.3339 3.96567 19.3384C4.01482 19.342 4.06643 19.3458 4.12244 19.3478C4.05437 21.1586 4.4356 22.8152 5.61562 24.2085C6.83195 25.6427 8.47943 26.0466 10.2722 26.0648V28.9649C10.2722 29.564 10.6398 29.9543 11.198 29.9543C11.7517 29.9543 12.1148 29.5594 12.1148 28.9558V27.331V26.1147H13.8349C13.8359 26.1193 13.8369 26.1238 13.8378 26.1283C13.8504 26.1867 13.8621 26.2411 13.8621 26.2917C13.8606 26.5898 13.8601 26.8884 13.8596 27.1872C13.8586 27.7845 13.8576 28.3825 13.8485 28.9785C13.8394 29.5413 14.2207 29.9861 14.7608 29.9997C15.3008 30.0133 15.7138 29.5912 15.7138 29.0239V26.5141V26.1102H17.4476C17.4493 26.1535 17.4517 26.1942 17.454 26.2332C17.4577 26.2964 17.4612 26.3553 17.4612 26.4142C17.4612 26.7003 17.4617 26.9859 17.4622 27.2714C17.4632 27.8417 17.4642 28.4114 17.4612 28.983C17.4566 29.5731 17.8288 29.9906 18.3734 29.9997C18.909 30.0088 19.3174 29.5867 19.3174 29.0148V28.0118V26.1011C19.3625 26.1011 19.4035 26.1022 19.4419 26.1033C19.512 26.1052 19.5736 26.1069 19.6351 26.1011C19.8161 26.0802 19.9986 26.0639 20.1813 26.0475C20.6354 26.0068 21.0908 25.966 21.5277 25.856C23.325 25.3976 24.7138 24.3991 25.4308 22.6246C25.7712 21.7849 25.8892 20.8999 25.8756 19.9968V19.3205H29.0526C29.5791 19.3205 30.0011 18.9075 30.0011 18.3947C30.0011 17.8909 29.5791 17.4779 29.048 17.4779H26.216H25.8938V15.785C25.9017 15.782 25.9088 15.7793 25.9152 15.7768C25.938 15.7678 25.9522 15.7623 25.9664 15.7623H28.9754C29.5564 15.7623 29.9921 15.3765 30.0011 14.8455C30.0102 14.3054 29.5654 13.8879 28.9845 13.8879H26.2115H25.8983V12.1633H28.989C29.57 12.1633 30.0148 11.7412 30.0011 11.2011C29.9875 10.6701 29.5518 10.2888 28.9709 10.2888H26.1661C26.1201 10.2888 26.073 10.2854 26.0265 10.2819C25.9811 10.2785 25.9363 10.2752 25.8938 10.2752C25.7531 8.54151 25.2538 6.99841 23.9694 5.80932C22.6669 4.60207 21.0421 4.35699 19.322 4.38422V3.99844V1.2844C19.322 0.680779 18.9544 0.281389 18.4052 0.27685C17.856 0.267773 17.4748 0.667164 17.4748 1.26171V3.97575C17.4748 4.05614 17.467 4.13653 17.459 4.2182C17.4549 4.26102 17.4507 4.3042 17.4476 4.34791ZM6.03569 16.8568C6.0367 16.3056 6.0377 15.7546 6.0377 15.2041V15.2086C6.0377 14.714 6.04065 14.2194 6.04359 13.7248C6.05032 12.595 6.05704 11.4658 6.02863 10.3388C5.98324 8.48251 7.32665 6.58541 9.52329 6.27679C9.6776 6.25863 9.83645 6.25863 9.9953 6.25863C11.1024 6.25863 12.2099 6.25762 13.3178 6.25662C15.5347 6.2546 17.7528 6.25258 19.971 6.25863C22.2357 6.26771 23.974 8.01504 23.9876 10.2888C24.0057 13.2797 24.0057 16.2706 24.0057 19.2615C24.0057 19.3248 24.0059 19.3882 24.0061 19.4517C24.0075 19.9391 24.0089 20.4306 23.9286 20.9045C23.6109 22.738 21.977 24.1314 20.1071 24.1404C16.7259 24.1631 13.3402 24.1631 9.95445 24.1404C7.77142 24.1223 6.05132 22.3523 6.0377 20.1647C6.03165 19.0632 6.03367 17.9596 6.03569 16.8568ZM13.83 21.8061C14.1583 21.8046 14.4868 21.8031 14.8152 21.8031V21.7986C15.1417 21.7986 15.4686 21.8006 15.7959 21.8026C16.4514 21.8066 17.1084 21.8107 17.7653 21.7986C19.9256 21.7577 21.564 20.0875 21.5686 17.9227C21.5731 16.0074 21.5776 14.0876 21.5686 12.1678C21.5686 11.8955 21.5459 11.6141 21.4823 11.3509C21.0466 9.47645 19.558 8.30097 17.4793 8.27374C16.0357 8.25962 14.5894 8.26472 13.1425 8.26982C12.7288 8.27127 12.3152 8.27273 11.9015 8.27374C9.77291 8.27828 8.05735 9.9893 8.05735 12.1179C8.04827 14.074 8.04827 16.0346 8.05735 17.9907C8.06189 18.254 8.08912 18.5263 8.14812 18.7804C8.56113 20.5822 10.018 21.7713 11.8652 21.8031C12.5186 21.8122 13.174 21.8091 13.83 21.8061ZM19.6941 12.127V15.018L19.6987 15.0225V17.9136C19.6941 19.0845 18.8772 19.9015 17.7153 19.9015H11.9333C10.785 19.9015 9.9363 19.1072 9.92268 17.959C9.89999 15.9802 9.89999 14.0059 9.92268 12.0271C9.93176 10.9333 10.7669 10.13 11.8788 10.1209C13.8394 10.1073 15.7955 10.1028 17.7516 10.1255C18.909 10.1391 19.6941 10.9696 19.6941 12.127Z" fill="#F7B917"/>
</svg>
