<svg width="29" height="34" viewBox="0 0 29 34" fill="none" xmlns="http://www.w3.org/2000/svg">
<path fill-rule="evenodd" clip-rule="evenodd" d="M7.09633 11.3355H21.289C23.1704 11.3378 24.974 12.0847 26.3044 13.4125C27.6347 14.7403 28.3831 16.5404 28.3853 18.4182V26.9174C28.3831 28.7951 27.6347 30.5953 26.3044 31.9231C24.974 33.2508 23.1704 33.9978 21.289 34H7.09633C5.21496 33.9978 3.41129 33.2508 2.08096 31.9231C0.750624 30.5953 0.00225359 28.7951 0 26.9174V18.4182C0.00181435 17.0417 0.405492 15.6955 1.16167 14.5443C1.91784 13.3931 2.99374 12.4868 4.2578 11.9361V9.91901C4.25706 7.72071 4.98828 5.58449 6.33649 3.84614C7.68471 2.1078 9.57349 0.865893 11.7059 0.315649C13.8384 -0.234595 16.0935 -0.0619805 18.117 0.80636C20.1404 1.6747 21.8174 3.18953 22.8842 5.11273C22.9747 5.27541 23.0322 5.45428 23.0535 5.63913C23.0747 5.82399 23.0592 6.0112 23.008 6.19009C22.9567 6.36898 22.8706 6.53604 22.7547 6.68173C22.6387 6.82743 22.4951 6.9489 22.3322 7.03921C22.1692 7.12952 21.9899 7.18691 21.8047 7.2081C21.6195 7.22928 21.4319 7.21385 21.2527 7.16268C21.0735 7.11151 20.9061 7.02561 20.7601 6.90988C20.6141 6.79415 20.4924 6.65086 20.4019 6.48818C19.6402 5.11411 18.4426 4.03167 16.9973 3.41103C15.552 2.79039 13.941 2.66675 12.4176 3.05955C10.8942 3.45235 9.54486 4.33932 8.58162 5.581C7.61837 6.82268 7.09589 8.34865 7.09633 9.91901V11.3355ZM24.2997 29.9223C25.0982 29.1253 25.5468 28.0444 25.5468 26.9174V18.4182C25.5468 17.2911 25.0982 16.2102 24.2997 15.4133C23.5012 14.6163 22.4182 14.1686 21.289 14.1686H7.09633C5.96709 14.1686 4.8841 14.6163 4.08561 15.4133C3.28712 16.2102 2.83853 17.2911 2.83853 18.4182V26.9174C2.83853 28.0444 3.28712 29.1253 4.08561 29.9223C4.8841 30.7192 5.96709 31.1669 7.09633 31.1669H21.289C22.4182 31.1669 23.5012 30.7192 24.2997 29.9223ZM13.2001 20.2299C13.4634 19.9593 13.8204 19.8073 14.1927 19.8073C14.5649 19.8073 14.922 19.9593 15.1852 20.2299C15.4484 20.5004 15.5963 20.8674 15.5963 21.25V24.1353C15.5963 24.5179 15.4484 24.8849 15.1852 25.1554C14.922 25.426 14.5649 25.578 14.1927 25.578C13.8204 25.578 13.4634 25.426 13.2001 25.1554C12.9369 24.8849 12.789 24.5179 12.789 24.1353V21.25C12.789 20.8674 12.9369 20.5004 13.2001 20.2299Z" fill="#FABA13"/>
</svg>
