<svg width="30" height="34" viewBox="0 0 30 34" fill="none" xmlns="http://www.w3.org/2000/svg">
<path fill-rule="evenodd" clip-rule="evenodd" d="M15.4477 0.0722555L24.3231 3.03167C25.7342 3.50042 26.9617 4.40195 27.8312 5.60818C28.7007 6.8144 29.168 8.26397 29.1667 9.75092V17C29.1667 27.7143 16.1333 33.6317 15.5752 33.8782C15.3941 33.9586 15.1981 34.0002 15 34.0002C14.8018 34.0002 14.6059 33.9586 14.4248 33.8782C13.8667 33.6317 0.833319 27.7143 0.833319 17V9.75092C0.831954 8.26397 1.29922 6.8144 2.16873 5.60818C3.03824 4.40195 4.26577 3.50042 5.6769 3.03167L14.5523 0.0722555C14.8429 -0.0245327 15.1571 -0.0245327 15.4477 0.0722555ZM15 31.0094C17.3814 29.7968 26.3333 24.7279 26.3333 17V9.75092C26.3332 8.85882 26.0524 7.98935 25.5307 7.26572C25.0089 6.5421 24.2727 6.001 23.4263 5.71909L15 2.90984L6.57365 5.71909C5.72726 6.001 4.99103 6.5421 4.46929 7.26572C3.94754 7.98935 3.66673 8.85882 3.66665 9.75092V17C3.66665 24.7478 12.6157 29.801 15 31.0094ZM13.742 17.7083L19.675 11.7583C19.8072 11.6264 19.964 11.5219 20.1366 11.4506C20.3092 11.3793 20.4942 11.3427 20.6809 11.3429C20.8676 11.3431 21.0525 11.3801 21.225 11.4517C21.3974 11.5234 21.5541 11.6283 21.686 11.7605C21.8179 11.8927 21.9224 12.0495 21.9937 12.2221C22.065 12.3947 22.1016 12.5797 22.1014 12.7664C22.1012 12.9531 22.0642 13.138 21.9926 13.3104C21.9209 13.4829 21.816 13.6395 21.6838 13.7714L15.6318 19.8234C15.3842 20.0727 15.0895 20.2704 14.7648 20.4049C14.4401 20.5394 14.092 20.608 13.7406 20.6068H13.6938C13.3353 20.6014 12.9815 20.5232 12.654 20.3771C12.3265 20.231 12.032 20.02 11.7884 19.7568L8.52158 16.3568C8.38716 16.2239 8.28069 16.0655 8.20846 15.8908C8.13623 15.7161 8.09969 15.5287 8.10099 15.3397C8.10229 15.1507 8.14141 14.9638 8.21605 14.7901C8.29068 14.6164 8.39932 14.4595 8.53556 14.3284C8.6718 14.1974 8.83289 14.0949 9.00934 14.0271C9.18579 13.9593 9.37403 13.9275 9.56296 13.9335C9.7519 13.9396 9.93772 13.9834 10.1095 14.0623C10.2812 14.1413 10.4354 14.2539 10.563 14.3933L13.742 17.7083Z" fill="#FABA13"/>
</svg>
